<svg width="110" height="13" viewBox="0 0 110 13" fill="none" xmlns="http://www.w3.org/2000/svg">
<path d="M0.48 12V11.824C0.586667 11.6 0.842667 11.216 1.248 10.672C1.664 10.1173 2.23467 9.46667 2.96 8.72C3.344 8.31467 3.72267 7.94667 4.096 7.616C4.48 7.28533 4.82133 6.97067 5.12 6.672C5.42933 6.36267 5.67467 6.05867 5.856 5.76C6.048 5.46133 6.144 5.14667 6.144 4.816C6.144 4.41067 6.02133 4.096 5.776 3.872C5.53067 3.63733 5.12533 3.52 4.56 3.52C4.048 3.52 3.568 3.6 3.12 3.76C2.672 3.92 2.272 4.11733 1.92 4.352C1.57867 4.576 1.312 4.79467 1.12 5.008V4.688L0.8 3.2C1.024 2.98667 1.456 2.77333 2.096 2.56C2.736 2.34667 3.54667 2.24 4.528 2.24C5.392 2.24 6.06933 2.352 6.56 2.576C7.06133 2.8 7.41333 3.09333 7.616 3.456C7.82933 3.808 7.936 4.18133 7.936 4.576C7.936 5.14133 7.80267 5.65867 7.536 6.128C7.26933 6.58667 6.912 7.03467 6.464 7.472C6.02667 7.89867 5.54133 8.34667 5.008 8.816C4.45333 9.296 3.97333 9.696 3.568 10.016C3.16267 10.3253 2.86933 10.5387 2.688 10.656V10.704H6.176C6.816 10.704 7.33867 10.6507 7.744 10.544C8.16 10.4373 8.43733 10.3307 8.576 10.224L8.256 11.504V12H0.48ZM13.9425 12.16C12.5238 12.16 11.4625 11.7387 10.7585 10.896C10.0545 10.0427 9.7025 8.79467 9.7025 7.152C9.7025 5.552 10.0598 4.336 10.7745 3.504C11.4892 2.66133 12.5452 2.24 13.9425 2.24H14.1185C15.4945 2.24 16.5292 2.656 17.2225 3.488C17.9265 4.32 18.2785 5.54133 18.2785 7.152C18.2785 8.79467 17.9265 10.0427 17.2225 10.896C16.5292 11.7387 15.4945 12.16 14.1185 12.16H13.9425ZM13.9425 10.864H14.1185C14.6198 10.864 15.0465 10.7627 15.3985 10.56C15.7505 10.3467 16.0172 9.97333 16.1985 9.44C16.3905 8.896 16.4865 8.13333 16.4865 7.152C16.4865 6.192 16.3905 5.45067 16.1985 4.928C16.0172 4.39467 15.7505 4.02667 15.3985 3.824C15.0465 3.62133 14.6198 3.52 14.1185 3.52H13.9425C13.4305 3.52 12.9932 3.62133 12.6305 3.824C12.2678 4.02667 11.9852 4.38933 11.7825 4.912C11.5905 5.43467 11.4945 6.18133 11.4945 7.152C11.4945 8.144 11.5905 8.912 11.7825 9.456C11.9852 9.98933 12.2678 10.3573 12.6305 10.56C13.0038 10.7627 13.4412 10.864 13.9425 10.864ZM19.4019 12V11.824C19.5085 11.6 19.7645 11.216 20.1699 10.672C20.5859 10.1173 21.1565 9.46667 21.8819 8.72C22.2659 8.31467 22.6445 7.94667 23.0179 7.616C23.4019 7.28533 23.7432 6.97067 24.0419 6.672C24.3512 6.36267 24.5965 6.05867 24.7779 5.76C24.9699 5.46133 25.0659 5.14667 25.0659 4.816C25.0659 4.41067 24.9432 4.096 24.6979 3.872C24.4525 3.63733 24.0472 3.52 23.4819 3.52C22.9699 3.52 22.4899 3.6 22.0419 3.76C21.5939 3.92 21.1939 4.11733 20.8419 4.352C20.5005 4.576 20.2339 4.79467 20.0419 5.008V4.688L19.7219 3.2C19.9459 2.98667 20.3779 2.77333 21.0179 2.56C21.6579 2.34667 22.4685 2.24 23.4499 2.24C24.3139 2.24 24.9912 2.352 25.4819 2.576C25.9832 2.8 26.3352 3.09333 26.5379 3.456C26.7512 3.808 26.8579 4.18133 26.8579 4.576C26.8579 5.14133 26.7245 5.65867 26.4579 6.128C26.1912 6.58667 25.8339 7.03467 25.3859 7.472C24.9485 7.89867 24.4632 8.34667 23.9299 8.816C23.3752 9.296 22.8952 9.696 22.4899 10.016C22.0845 10.3253 21.7912 10.5387 21.6099 10.656V10.704H25.0979C25.7379 10.704 26.2605 10.6507 26.6659 10.544C27.0819 10.4373 27.3592 10.3307 27.4979 10.224L27.1779 11.504V12H19.4019ZM28.4644 12V11.824C28.571 11.6 28.827 11.216 29.2324 10.672C29.6484 10.1173 30.219 9.46667 30.9444 8.72C31.3284 8.31467 31.707 7.94667 32.0804 7.616C32.4644 7.28533 32.8057 6.97067 33.1044 6.672C33.4137 6.36267 33.659 6.05867 33.8404 5.76C34.0324 5.46133 34.1284 5.14667 34.1284 4.816C34.1284 4.41067 34.0057 4.096 33.7604 3.872C33.515 3.63733 33.1097 3.52 32.5444 3.52C32.0324 3.52 31.5524 3.6 31.1044 3.76C30.6564 3.92 30.2564 4.11733 29.9044 4.352C29.563 4.576 29.2964 4.79467 29.1044 5.008V4.688L28.7844 3.2C29.0084 2.98667 29.4404 2.77333 30.0804 2.56C30.7204 2.34667 31.531 2.24 32.5124 2.24C33.3764 2.24 34.0537 2.352 34.5444 2.576C35.0457 2.8 35.3977 3.09333 35.6004 3.456C35.8137 3.808 35.9204 4.18133 35.9204 4.576C35.9204 5.14133 35.787 5.65867 35.5204 6.128C35.2537 6.58667 34.8964 7.03467 34.4484 7.472C34.011 7.89867 33.5257 8.34667 32.9924 8.816C32.4377 9.296 31.9577 9.696 31.5524 10.016C31.147 10.3253 30.8537 10.5387 30.6724 10.656V10.704H34.1604C34.8004 10.704 35.323 10.6507 35.7284 10.544C36.1444 10.4373 36.4217 10.3307 36.5604 10.224L36.2404 11.504V12H28.4644ZM41.8506 12C41.9253 12 42 11.9253 42.0746 11.776C42.1493 11.6267 42.1866 11.3813 42.1866 11.04V3.36C42.1866 3.01867 42.1493 2.77867 42.0746 2.64C42 2.49067 41.9253 2.41067 41.8506 2.4H44.8106C44.7893 2.4 44.8 2.47467 44.8426 2.624C44.8853 2.77333 44.9866 3.02933 45.1466 3.392C45.2106 3.53067 45.3226 3.776 45.4826 4.128C45.6533 4.48 45.856 4.90133 46.0906 5.392C46.3253 5.872 46.576 6.38933 46.8426 6.944C47.1093 7.49867 47.3813 8.064 47.6586 8.64C47.936 9.20533 48.1973 9.73867 48.4426 10.24H48.4586C48.7146 9.728 48.9813 9.18933 49.2586 8.624C49.536 8.048 49.8133 7.47733 50.0906 6.912C50.368 6.34667 50.624 5.824 50.8586 5.344C51.0933 4.85333 51.2906 4.43733 51.4506 4.096C51.6213 3.744 51.7386 3.49867 51.8026 3.36C51.952 3.01867 52.048 2.77333 52.0906 2.624C52.144 2.47467 52.16 2.4 52.1386 2.4H55.0826C55.008 2.4 54.9333 2.47467 54.8586 2.624C54.784 2.77333 54.7466 3.024 54.7466 3.376V11.04C54.7466 11.3813 54.784 11.6267 54.8586 11.776C54.9333 11.9253 55.008 12 55.0826 12H52.6346C52.7093 12 52.7786 11.9253 52.8426 11.776C52.9173 11.6267 52.9546 11.3813 52.9546 11.04V4.416H52.9226C52.6986 4.864 52.4586 5.344 52.2026 5.856C51.9573 6.368 51.7066 6.88533 51.4506 7.408C51.1946 7.92 50.9546 8.416 50.7306 8.896C50.5066 9.36533 50.304 9.78667 50.1226 10.16C49.952 10.5333 49.8186 10.8267 49.7226 11.04C49.5733 11.3707 49.4933 11.6107 49.4826 11.76C49.4826 11.9093 49.5093 11.9893 49.5626 12H47.3226C47.376 12 47.4026 11.9307 47.4026 11.792C47.4026 11.6427 47.3226 11.392 47.1626 11.04C47.088 10.8587 46.9653 10.592 46.7946 10.24C46.624 9.888 46.4266 9.47733 46.2026 9.008C45.9893 8.528 45.7546 8.02667 45.4986 7.504C45.2426 6.97067 44.9866 6.43733 44.7306 5.904C44.4853 5.37067 44.2506 4.87467 44.0266 4.416H43.9786V11.04C43.9786 11.3813 44.016 11.6267 44.0906 11.776C44.1653 11.9253 44.24 12 44.3146 12H41.8506ZM60.7989 12.16C59.9562 12.16 59.2629 12.064 58.7189 11.872C58.1749 11.6693 57.7482 11.392 57.4389 11.04C57.1295 10.688 56.9109 10.2773 56.7829 9.808C56.6655 9.33867 56.6069 8.82667 56.6069 8.272C56.6069 7.06667 56.9482 6.112 57.6309 5.408C58.3242 4.704 59.3482 4.352 60.7029 4.352C61.4922 4.352 62.1269 4.45867 62.6069 4.672C63.0975 4.88533 63.4655 5.168 63.7109 5.52C63.9669 5.872 64.1375 6.256 64.2229 6.672C64.3189 7.07733 64.3669 7.47733 64.3669 7.872V8.624C64.3669 8.592 64.2175 8.56 63.9189 8.528C63.6309 8.48533 63.1402 8.464 62.4469 8.464H58.2389C58.2389 9.25333 58.4735 9.87733 58.9429 10.336C59.4122 10.7947 60.1109 11.024 61.0389 11.024C61.8389 11.024 62.4949 10.928 63.0069 10.736C63.5295 10.5333 63.8762 10.336 64.0469 10.144V10.464L64.2069 11.52C63.9722 11.6587 63.5562 11.8027 62.9589 11.952C62.3722 12.0907 61.6522 12.16 60.7989 12.16ZM58.8789 7.408H62.7669C62.7669 7.13067 62.7082 6.84267 62.5909 6.544C62.4735 6.24533 62.2655 5.99467 61.9669 5.792C61.6682 5.57867 61.2469 5.472 60.7029 5.472C60.2442 5.472 59.8442 5.552 59.5029 5.712C59.1615 5.86133 58.8949 6.05867 58.7029 6.304C58.5215 6.54933 58.4309 6.81067 58.4309 7.088C58.4309 7.19467 58.4629 7.27467 58.5269 7.328C58.5909 7.38133 58.7082 7.408 58.8789 7.408ZM68.856 12.16C68.12 12.16 67.5867 12.0053 67.256 11.696C66.9253 11.376 66.76 10.8587 66.76 10.144V5.632H65.32V4.512C65.8107 4.512 66.1947 4.45333 66.472 4.336C66.7493 4.208 66.9467 3.98933 67.064 3.68C67.1813 3.37067 67.24 2.93867 67.24 2.384H68.392V4.512H71.448C71.3733 4.61867 71.2987 4.77867 71.224 4.992C71.16 5.19467 71.128 5.408 71.128 5.632H68.392V9.904C68.392 10.3947 68.4827 10.704 68.664 10.832C68.8453 10.96 69.0747 11.024 69.352 11.024C69.6187 11.024 69.864 10.9707 70.088 10.864C70.3227 10.7467 70.5253 10.608 70.696 10.448C70.8773 10.288 71.016 10.1333 71.112 9.984V10.48L71.272 11.392C71.1653 11.4987 71 11.616 70.776 11.744C70.552 11.8613 70.28 11.9573 69.96 12.032C69.64 12.1173 69.272 12.16 68.856 12.16ZM75.4014 12.16C74.2387 12.16 73.4227 11.952 72.9534 11.536C72.484 11.1093 72.2494 10.5387 72.2494 9.824C72.2494 9.32267 72.372 8.896 72.6174 8.544C72.8734 8.18133 73.252 7.904 73.7534 7.712C74.2654 7.52 74.9107 7.424 75.6894 7.424C76.244 7.424 76.724 7.46667 77.1294 7.552C77.5454 7.62667 77.8814 7.71733 78.1374 7.824C78.404 7.93067 78.5907 8.02133 78.6974 8.096C78.6974 7.46667 78.6174 6.96 78.4574 6.576C78.308 6.192 78.0627 5.91467 77.7214 5.744C77.38 5.56267 76.916 5.472 76.3294 5.472C75.7 5.472 75.1347 5.54667 74.6334 5.696C74.1427 5.83467 73.748 5.98933 73.4494 6.16C73.1507 6.32 72.964 6.43733 72.8894 6.512V6.192L72.7294 4.992C72.8254 4.94933 73.0334 4.88 73.3534 4.784C73.6734 4.67733 74.0947 4.58133 74.6174 4.496C75.14 4.4 75.7534 4.352 76.4574 4.352C77.3534 4.352 78.084 4.48 78.6494 4.736C79.2254 4.98133 79.6467 5.36533 79.9134 5.888C80.1907 6.4 80.3294 7.05067 80.3294 7.84V11.04C80.3294 11.3387 80.3614 11.5573 80.4254 11.696C80.5 11.824 80.5747 11.9253 80.6494 12H78.6974V11.52L78.7294 11.216L78.6974 11.2C78.5267 11.36 78.324 11.4987 78.0894 11.616C77.8547 11.7333 77.5987 11.8347 77.3214 11.92C77.044 11.9947 76.74 12.0533 76.4094 12.096C76.0894 12.1387 75.7534 12.16 75.4014 12.16ZM75.9294 11.024C76.5054 11.024 77.0014 10.9653 77.4174 10.848C77.8334 10.7307 78.148 10.576 78.3614 10.384C78.5854 10.1813 78.6974 9.952 78.6974 9.696C78.6974 9.376 78.484 9.104 78.0574 8.88C77.6414 8.656 76.9907 8.544 76.1054 8.544C75.284 8.544 74.7027 8.65067 74.3614 8.864C74.0307 9.07733 73.8654 9.39733 73.8654 9.824C73.8654 10.24 74.0254 10.544 74.3454 10.736C74.676 10.928 75.204 11.024 75.9294 11.024ZM86.4809 12.16C85.8942 12.16 85.3982 12.0907 84.9929 11.952C84.5982 11.8133 84.2622 11.6213 83.9849 11.376L83.9529 11.392L83.9849 11.696V12H82.0329C82.1075 12 82.1769 11.9253 82.2409 11.776C82.3155 11.6267 82.3529 11.3813 82.3529 11.04V1.92C82.3529 1.57867 82.3155 1.33867 82.2409 1.2C82.1769 1.05067 82.1075 0.970666 82.0329 0.959999H83.9849V4.832L83.9529 5.136L83.9849 5.168C84.1235 5.02933 84.3102 4.90133 84.5449 4.784C84.7902 4.656 85.0782 4.55467 85.4089 4.48C85.7395 4.39467 86.0969 4.352 86.4809 4.352C87.4729 4.352 88.2569 4.528 88.8329 4.88C89.4089 5.22133 89.8195 5.68533 90.0649 6.272C90.3209 6.85867 90.4489 7.52533 90.4489 8.272C90.4489 9.008 90.3262 9.66933 90.0809 10.256C89.8355 10.8427 89.4249 11.3067 88.8489 11.648C88.2729 11.9893 87.4835 12.16 86.4809 12.16ZM86.3209 11.024C86.9822 11.024 87.4942 10.9173 87.8569 10.704C88.2195 10.4907 88.4702 10.1813 88.6089 9.776C88.7475 9.36 88.8169 8.85867 88.8169 8.272C88.8169 7.68533 88.7422 7.184 88.5929 6.768C88.4542 6.352 88.2035 6.032 87.8409 5.808C87.4889 5.584 86.9822 5.472 86.3209 5.472C85.6809 5.472 85.1902 5.6 84.8489 5.856C84.5182 6.10133 84.2889 6.43733 84.1609 6.864C84.0435 7.29067 83.9849 7.76 83.9849 8.272C83.9849 9.11467 84.1502 9.78667 84.4809 10.288C84.8115 10.7787 85.4249 11.024 86.3209 11.024ZM91.7516 12C91.8263 12 91.8956 11.9253 91.9596 11.776C92.0343 11.6267 92.0716 11.3813 92.0716 11.04V5.632C92.0716 5.29067 92.0343 5.05067 91.9596 4.912C91.8956 4.76267 91.8263 4.68267 91.7516 4.672C92.221 4.672 92.6263 4.64 92.9676 4.576C93.3196 4.50133 93.565 4.42667 93.7036 4.352V5.328L93.6716 5.536L93.7036 5.568C93.8636 5.36533 94.0663 5.17333 94.3116 4.992C94.5676 4.81067 94.8823 4.66133 95.2556 4.544C95.629 4.416 96.0663 4.352 96.5676 4.352C97.5596 4.352 98.317 4.63467 98.8396 5.2C99.373 5.76533 99.6396 6.65067 99.6396 7.856V11.04C99.6396 11.3813 99.6716 11.6267 99.7356 11.776C99.8103 11.9253 99.885 12 99.9596 12H97.6876C97.7623 12 97.8316 11.9253 97.8956 11.776C97.9703 11.6267 98.0076 11.3813 98.0076 11.04V7.904C98.0076 7.27467 97.9276 6.784 97.7676 6.432C97.6076 6.08 97.3836 5.83467 97.0956 5.696C96.8183 5.54667 96.493 5.472 96.1196 5.472C95.725 5.472 95.341 5.55733 94.9676 5.728C94.5943 5.89867 94.2903 6.17067 94.0556 6.544C93.821 6.91733 93.7036 7.41867 93.7036 8.048V11.04C93.7036 11.3813 93.7356 11.6267 93.7996 11.776C93.8743 11.9253 93.949 12 94.0236 12H91.7516ZM105.778 12.16C105.191 12.16 104.695 12.0907 104.29 11.952C103.895 11.8133 103.559 11.6213 103.282 11.376L103.25 11.392L103.282 11.696V12H101.33C101.404 12 101.474 11.9253 101.538 11.776C101.612 11.6267 101.65 11.3813 101.65 11.04V1.92C101.65 1.57867 101.612 1.33867 101.538 1.2C101.474 1.05067 101.404 0.970666 101.33 0.959999H103.282V4.832L103.25 5.136L103.282 5.168C103.42 5.02933 103.607 4.90133 103.842 4.784C104.087 4.656 104.375 4.55467 104.706 4.48C105.036 4.39467 105.394 4.352 105.778 4.352C106.77 4.352 107.554 4.528 108.13 4.88C108.706 5.22133 109.116 5.68533 109.362 6.272C109.618 6.85867 109.746 7.52533 109.746 8.272C109.746 9.008 109.623 9.66933 109.378 10.256C109.132 10.8427 108.722 11.3067 108.146 11.648C107.57 11.9893 106.78 12.16 105.778 12.16ZM105.618 11.024C106.279 11.024 106.791 10.9173 107.154 10.704C107.516 10.4907 107.767 10.1813 107.906 9.776C108.044 9.36 108.114 8.85867 108.114 8.272C108.114 7.68533 108.039 7.184 107.89 6.768C107.751 6.352 107.5 6.032 107.138 5.808C106.786 5.584 106.279 5.472 105.618 5.472C104.978 5.472 104.487 5.6 104.146 5.856C103.815 6.10133 103.586 6.43733 103.458 6.864C103.34 7.29067 103.282 7.76 103.282 8.272C103.282 9.11467 103.447 9.78667 103.778 10.288C104.108 10.7787 104.722 11.024 105.618 11.024Z" fill="#F7F7F7"/>
</svg>
